<svg width="96.000000" height="96.000000" viewBox="0 0 96 96" fill="currentColor" xmlns="http://www.w3.org/2000/svg" xmlns:xlink="http://www.w3.org/1999/xlink">
	<desc>
			Created with Pixso.
	</desc>
	<defs>
		<clipPath id="clip127_294">
			<rect id="Frame 11" rx="-0.500000" width="95.000000" height="95.000000" transform="translate(0.500000 0.500000)" fill="white" fill-opacity="0"/>
		</clipPath>
	</defs>
	<g clip-path="url(#clip127_294)">
		<path id="Vector" d="M67.24 57.39C64.99 56.94 62.77 58.41 61.84 60.95C61.65 61.44 61.53 61.95 61.46 62.47C63.78 61.08 65.8 59.41 67.55 57.45L67.24 57.39Z" fill="currentColor" fill-opacity="1.000000" fill-rule="nonzero"/>
		<path id="Vector" d="M71.99 17.34C74.72 22.51 73.53 29.41 69.32 32.77C65.11 36.13 59.48 34.67 56.74 29.51C54 24.35 55.19 17.44 59.4 14.08C63.61 10.72 69.25 12.18 71.99 17.34Z" fill="currentColor" fill-opacity="1.000000" fill-rule="evenodd"/>
		<path id="Vector" d="M86.01 35.59C82.08 29.62 76.74 29.55 73.79 31.98C70.84 34.42 71.06 40.61 73.52 44.76C73.63 44.99 73.75 45.23 73.87 45.46C74.71 42.3 74.83 40.01 74.84 39.98C74.92 37.3 76.69 35.21 78.87 35.21C78.92 35.21 78.97 35.21 79.02 35.21C81.25 35.31 83 37.62 82.91 40.35L82.91 40.36L82.91 40.4C82.85 41.93 82.42 47.43 79.71 53.97C79.46 54.57 79.17 55.22 78.84 55.92C79.41 57.25 79.95 58.61 80.45 59.99L77 59.31C74.67 63.14 71.1 67.49 65.79 70.89L81.21 86.54C82.15 87.5 83.29 87.97 84.42 87.97C85.88 87.97 87.32 87.2 88.32 85.72C90.1 83.08 89.8 79.18 87.65 77L83.94 73.23L85.14 73.47C85.51 73.54 85.88 73.56 86.24 73.53C87.11 73.58 88.14 73.21 89.4 72.67C92.89 71.18 96.86 68.54 95.83 60.51C93.75 49.71 91.38 43.84 86.01 35.59Z" fill="currentColor" fill-opacity="1.000000" fill-rule="nonzero"/>
		<path id="Vector" d="M78.99 53.52C81.9 46.49 82.09 40.68 82.11 40.31C82.17 38.12 80.78 36.28 78.99 36.2C77.21 36.12 75.71 37.82 75.64 40.01L75.64 40.01C75.64 40.26 75.37 45.04 73.01 50.43C70.62 55.83 66.33 61.89 57.64 65.44C55.94 66.13 55.02 68.37 55.58 70.45C56.03 72.12 57.3 73.17 58.65 73.17C58.99 73.17 59.33 73.11 59.67 72.97C70.29 68.71 76.11 60.53 78.99 53.52Z" fill="currentColor" fill-opacity="1.000000" fill-rule="nonzero"/>
		<path id="Vector" d="M36.4 72.38C37.87 72.73 39.64 73.29 40.1 73.9C41.36 75.53 41.98 78.89 43.61 79.13C44.75 79.29 45.15 79.26 46.57 78.15C47.96 77.04 46.64 72.73 46.3 71.07C45.83 68.73 46.96 66.15 46.97 65.99C46.99 65.86 47.96 63.36 50.76 64.31C51.74 64.64 51.17 62.42 49.63 61.31C47.81 60 46.49 60.61 45.16 61.89C42.59 59.48 38.55 59.95 36.26 61C35.9 62.83 35.75 64.6 35.75 66.23C35.75 68.71 36.08 70.86 36.4 72.38ZM42.93 67.17C43.53 66.67 44.35 66.86 44.76 67.6C45.17 68.33 45.01 69.33 44.41 69.83C43.81 70.33 42.99 70.15 42.59 69.41C42.18 68.68 42.33 67.67 42.93 67.17Z" fill="currentColor" fill-opacity="1.000000" fill-rule="nonzero"/>
		<path id="Vector" d="M34.61 60.94C34.01 60.95 33.44 60.93 32.9 60.88C32.71 60.82 32.52 60.79 32.31 60.8C32.3 60.8 32.29 60.81 32.27 60.81C24.03 59.66 21.78 52.01 12.15 59.95C9.24 58.9 5.77 56.64 3.14 51.83C2.61 50.87 1.54 50.61 0.76 51.26C-0.03 51.91 -0.24 53.23 0.29 54.19C2.79 58.72 5.88 61.38 8.78 62.93C8.74 63.02 8.71 63.12 8.67 63.22C7.93 64.59 7.35 66.4 6.97 68.81C6.92 69.16 4.56 87.62 8.26 87.62C11.97 87.62 12.98 73.65 15.05 71.87C15.35 71.9 20.84 78.96 25.54 78.07C26.64 77.86 28.13 77.03 29.37 76.14L31.4 86.12C31.63 87.24 32.44 88 33.36 88C33.46 88 33.56 87.99 33.66 87.97C34.69 87.78 35.43 86.66 35.38 85.39L34.85 72.97C34.5 71.31 34.14 68.97 34.14 66.23C34.14 64.59 34.27 62.8 34.61 60.94Z" fill="currentColor" fill-opacity="1.000000" fill-rule="nonzero"/>
		<path id="Vector" d="M52.65 85.33L52.14 85.33L51.09 81.37L39.43 81.37L38.39 85.33L37.88 85.33C37.47 85.33 37.13 85.74 37.13 86.25C37.13 86.75 37.47 87.16 37.88 87.16L52.65 87.16C53.06 87.16 53.39 86.75 53.39 86.25C53.39 85.74 53.06 85.33 52.65 85.33Z" fill="currentColor" fill-opacity="1.000000" fill-rule="nonzero"/>
	</g>
</svg>
