<svg width="40.000000" height="40.000000" viewBox="0 0 40 40" fill="none" xmlns="http://www.w3.org/2000/svg" xmlns:xlink="http://www.w3.org/1999/xlink">
	<desc>
			Created with Pixso.
	</desc>
	<defs>
		<clipPath id="clip130_842">
			<rect rx="0.000000" width="39.000000" height="39.000000" transform="translate(0.500000 0.500000)" fill="white" fill-opacity="0"/>
		</clipPath>
	</defs>
	<rect rx="0.000000" width="39.000000" height="39.000000" transform="translate(0.500000 0.500000)" fill="#FFFFFF" fill-opacity="0"/>
	<g clip-path="url(#clip130_842)">
		<path d="M36.25 20C36.25 16.78 35.29 13.64 33.51 10.97C31.72 8.29 29.18 6.21 26.21 4.98C23.24 3.75 19.98 3.43 16.82 4.06C13.67 4.68 10.78 6.23 8.5 8.5C6.23 10.78 4.68 13.67 4.06 16.82C3.43 19.98 3.75 23.24 4.98 26.21C6.21 29.18 8.29 31.72 10.97 33.51C13.64 35.29 16.78 36.25 20 36.25C24.3 36.24 28.43 34.53 31.48 31.48C34.53 28.43 36.24 24.3 36.25 20ZM21.25 33.68L21.25 23.75L25 23.75C25.33 23.75 25.64 23.61 25.88 23.38C26.11 23.14 26.25 22.83 26.25 22.5C26.25 22.16 26.11 21.85 25.88 21.61C25.64 21.38 25.33 21.25 25 21.25L21.25 21.25L21.25 17.5C21.25 16.83 21.51 16.2 21.98 15.73C22.45 15.26 23.08 15 23.75 15L26.25 15C26.58 15 26.89 14.86 27.13 14.63C27.36 14.39 27.5 14.08 27.5 13.75C27.5 13.41 27.36 13.1 27.13 12.86C26.89 12.63 26.58 12.5 26.25 12.5L23.75 12.5C22.42 12.5 21.15 13.03 20.21 13.96C19.28 14.9 18.75 16.17 18.75 17.5L18.75 21.25L15 21.25C14.66 21.25 14.35 21.38 14.11 21.61C13.88 21.85 13.75 22.16 13.75 22.5C13.75 22.83 13.88 23.14 14.11 23.38C14.35 23.61 14.66 23.75 15 23.75L18.75 23.75L18.75 33.68C15.22 33.36 11.96 31.69 9.63 29.03C7.31 26.36 6.1 22.9 6.26 19.36C6.42 15.83 7.94 12.49 10.5 10.05C13.05 7.6 16.46 6.24 20 6.24C23.53 6.24 26.94 7.6 29.49 10.05C32.05 12.49 33.57 15.83 33.73 19.36C33.89 22.9 32.68 26.36 30.36 29.03C28.03 31.69 24.77 33.36 21.25 33.68Z" fill="#FF9F0E" fill-opacity="1.000000" fill-rule="nonzero"/>
	</g>
</svg>
