<svg width="40.000000" height="40.000000" viewBox="0 0 40 40" fill="none" xmlns="http://www.w3.org/2000/svg" xmlns:xlink="http://www.w3.org/1999/xlink">
	<desc>
			Created with Pixso.
	</desc>
	<defs>
		<clipPath id="clip140_1776">
			<rect rx="-0.500000" width="39.000000" height="39.000000" transform="translate(0.500000 0.500000)" fill="white" fill-opacity="0"/>
		</clipPath>
	</defs>
	<rect rx="-0.500000" width="39.000000" height="39.000000" transform="translate(0.500000 0.500000)" fill="#FFFFFF" fill-opacity="0"/>
	<g clip-path="url(#clip140_1776)">
		<path d="M1.87 16L38.12 16L38.12 13.33L1.87 13.33L1.87 16ZM37.33 15.2L37.33 16.37L40 16.37L40 15.2L37.33 15.2ZM33.02 37.33L6.97 37.33L6.97 40L33.02 40L33.02 37.33ZM2.66 16.37L2.66 15.2L0 15.2L0 16.37L2.66 16.37ZM7.72 37.79C4.39 31.14 2.66 23.81 2.66 16.37L0 16.37C0 24.22 1.82 31.97 5.33 38.99L7.72 37.79ZM6.97 37.33C7.29 37.33 7.58 37.51 7.72 37.79L5.33 38.99C5.49 39.29 5.72 39.54 6.01 39.72C6.29 39.9 6.63 39.99 6.97 40L6.97 37.33ZM32.27 37.79C32.34 37.65 32.45 37.54 32.58 37.45C32.72 37.37 32.87 37.33 33.02 37.33L33.02 40C33.72 40 34.35 39.61 34.66 38.99L32.27 37.79ZM37.33 16.37C37.33 23.81 35.59 31.14 32.27 37.79L34.66 38.99C38.17 31.97 40 24.22 40 16.37L37.33 16.37ZM38.12 16C37.91 16 37.71 15.91 37.56 15.76C37.41 15.61 37.33 15.41 37.33 15.2L40 15.2C40 14.71 39.8 14.23 39.45 13.88C39.09 13.53 38.62 13.33 38.12 13.33L38.12 16ZM1.87 13.33C1.37 13.33 0.9 13.53 0.54 13.88C0.19 14.23 0 14.71 0 15.2L2.66 15.2C2.66 15.41 2.58 15.61 2.43 15.76C2.28 15.91 2.08 16 1.87 16L1.87 13.33ZM10.47 15.35L18.47 2.01L16.18 0.64L8.18 13.98L10.47 15.35ZM21.52 2.01L29.52 15.35L31.81 13.98L23.81 0.64L21.52 2.01ZM13.33 26.66L26.66 26.66L26.66 24L13.33 24L13.33 26.66Z" fill="#FF9F0E" fill-opacity="1.000000" fill-rule="nonzero"/>
	</g>
</svg>
