<svg width="96.000000" height="96.000000" viewBox="0 0 96 96" fill="currentColor" xmlns="http://www.w3.org/2000/svg" xmlns:xlink="http://www.w3.org/1999/xlink">
	<desc>
			Created with Pixso.
	</desc>
	<defs>
		<clipPath id="clip127_342">
			<rect id="Frame 13" rx="-0.500000" width="95.000000" height="95.000000" transform="translate(0.500000 0.500000)" fill="white" fill-opacity="0"/>
		</clipPath>
	</defs>
	<g clip-path="url(#clip127_342)">
		<path id="Vector" d="M68.31 44.75C67.71 43.36 66.67 41.66 64.57 40.27C63.37 39.5 58.73 38.88 58.58 43.21C58.58 43.21 56.64 43.52 56.79 44.91C56.79 44.91 55.59 49.08 61.28 48.61C61.28 48.61 62.33 56.49 63.22 58.19C63.22 58.19 63.67 59.73 63.82 61.28L66.22 61.28L66.37 58.19C66.37 58.19 67.71 59.11 68.76 61.28L72.2 61.28C72.05 60.04 71.9 58.96 71.6 58.19C71.6 58.19 76.69 58.19 78.49 55.87C78.49 55.87 79.98 58.81 81.78 58.96L81.78 61.43L84.17 61.43C84.32 60.97 84.32 60.5 84.47 59.73C84.47 59.73 85.37 60.2 85.82 61.43L87.91 61.43C87.61 60.35 84.92 50.31 84.02 49.54C84.02 49.54 85.37 49.39 85.82 51.08C85.82 51.08 86.57 54.64 88.06 54.48C88.06 54.48 89.11 52.16 87.32 49.23C87.32 49.23 86.57 47.07 82.68 47.38L71.45 47.07C69.96 46.76 68.91 45.83 68.31 44.75Z" fill="currentColor" fill-opacity="1.000000" fill-rule="nonzero"/>
		<path id="Vector" d="M54.69 32.86C55.59 31.62 55.44 29.77 54.24 28.69C53.05 27.76 51.25 27.92 50.2 29.15C47.36 32.86 42.27 33.48 38.68 31.93L36.74 37.49C42.87 39.96 50.35 38.73 54.69 32.86Z" fill="currentColor" fill-opacity="1.000000" fill-rule="nonzero"/>
		<path id="Vector" d="M36.59 15.56C36.59 19.74 33.3 23.13 29.25 23.13C25.21 23.13 21.92 19.74 21.92 15.56C21.92 11.38 25.21 8 29.25 8C33.3 8 36.59 11.38 36.59 15.56Z" fill="currentColor" fill-opacity="1.000000" fill-rule="evenodd"/>
		<path id="Vector" d="M33.59 62.98L27.31 60.35L31.05 49.38C22.67 44.6 19.68 37.03 19.53 36.57C18.63 34.25 19.68 31.78 21.92 30.85C24.17 29.93 26.56 31.01 27.46 33.32C27.61 33.63 29.4 37.65 34.04 40.89L36.89 32.86C37.19 31.93 37.04 31.01 36.44 30.23C31.05 24.06 24.77 21.74 17.88 23.9C15.94 24.52 14.59 26.06 14.14 28.07L8.16 60.2C8.16 60.35 8.16 60.35 8.16 60.5C8.16 60.66 8.16 60.97 8.16 61.12L8.45 75.79L5.16 75.02C2.92 74.56 0.52 76.1 0.07 78.42C-0.37 80.74 1.12 83.21 3.37 83.67L11.9 85.52C13.24 85.83 14.44 85.52 15.49 84.6C16.54 83.67 17.13 82.44 16.98 81.05L16.68 65.6L27.61 70.08L27.61 83.52C27.61 85.99 29.55 87.99 31.95 87.99C34.34 87.99 36.29 85.99 36.29 83.52L36.29 67.15C36.44 65.29 35.24 63.75 33.59 62.98Z" fill="currentColor" fill-opacity="1.000000" fill-rule="nonzero"/>
		<path id="Vector" d="M45.12 46.14C30.9 45.06 26.41 34.4 26.26 33.94C25.66 32.4 24.02 31.78 22.52 32.4C21.02 33.01 20.43 34.71 21.02 36.26C21.32 36.88 27.01 50.77 44.82 52.16C46.46 52.32 47.81 51.08 47.81 49.38C47.81 47.69 46.76 46.3 45.12 46.14Z" fill="currentColor" fill-opacity="1.000000" fill-rule="nonzero"/>
		<path id="Vector" d="M70.71 26.06C67.71 26.68 65.47 29.46 65.47 32.71L78.79 32.71C78.79 29.15 76.24 26.37 72.95 25.91C68.46 20.81 61.28 22.82 55.59 27.92C55.89 28.23 56.19 28.69 56.49 29.15C60.53 25.29 66.07 22.67 70.71 26.06Z" fill="currentColor" fill-opacity="1.000000" fill-rule="nonzero"/>
		<path id="Vector" d="M93.45 62.67L51.4 62.67C50.2 62.67 49.16 63.75 49.16 64.98C49.16 66.22 50.2 67.3 51.4 67.3L51.85 67.3L51.85 71.16C51.85 77.18 56.64 82.13 62.48 82.13L82.68 82.13C88.51 82.13 93.3 77.18 93.3 71.16L93.3 67.3L93.75 67.3C94.95 67.3 96 66.22 96 64.98C95.7 63.59 94.65 62.67 93.45 62.67Z" fill="currentColor" fill-opacity="1.000000" fill-rule="nonzero"/>
		<path id="Vector" d="M66.67 35.79L66.81 34.4C66.81 33.94 66.67 33.63 66.22 33.63C65.77 33.63 65.47 33.79 65.47 34.25L65.32 35.64C65.32 36.1 65.47 36.41 65.92 36.41C66.22 36.41 66.52 36.1 66.67 35.79Z" fill="currentColor" fill-opacity="1.000000" fill-rule="nonzero"/>
		<path id="Vector" d="M64.87 37.65L64.72 39.04C64.72 39.5 64.87 39.81 65.32 39.81C65.77 39.81 66.07 39.66 66.07 39.19L66.22 37.8C66.22 37.34 66.07 37.03 65.62 37.03C65.32 37.03 65.02 37.34 64.87 37.65Z" fill="currentColor" fill-opacity="1.000000" fill-rule="nonzero"/>
		<path id="Vector" d="M69.96 36.41C70.41 36.41 70.71 36.1 70.71 35.64L70.71 34.1C70.71 33.63 70.41 33.32 69.96 33.32C69.51 33.32 69.21 33.63 69.21 34.1L69.21 35.64C69.21 35.95 69.66 36.41 69.96 36.41Z" fill="currentColor" fill-opacity="1.000000" fill-rule="nonzero"/>
		<path id="Vector" d="M69.06 39.19C69.06 39.66 69.36 39.96 69.81 39.96C70.26 39.96 70.56 39.66 70.56 39.19L70.56 37.65C70.56 37.18 70.26 36.88 69.81 36.88C69.36 36.88 69.06 37.18 69.06 37.65L69.06 39.19Z" fill="currentColor" fill-opacity="1.000000" fill-rule="nonzero"/>
		<path id="Vector" d="M74 33.48C73.55 33.48 73.25 33.79 73.25 34.25L73.25 35.79C73.25 36.26 73.55 36.57 74 36.57C74.45 36.57 74.75 36.26 74.75 35.79L74.75 34.25C74.75 33.79 74.45 33.48 74 33.48Z" fill="currentColor" fill-opacity="1.000000" fill-rule="nonzero"/>
		<path id="Vector" d="M73.55 37.8L73.55 39.35C73.55 39.81 73.85 40.12 74.3 40.12C74.75 40.12 75.05 39.81 75.05 39.35L75.05 37.8C75.05 37.34 74.75 37.03 74.3 37.03C73.7 37.03 73.4 37.34 73.55 37.8Z" fill="currentColor" fill-opacity="1.000000" fill-rule="nonzero"/>
		<path id="Vector" d="M77.89 33.48C77.44 33.48 77.29 33.94 77.29 34.25L77.44 35.64C77.44 35.95 77.74 36.26 78.19 36.26C78.64 36.26 78.94 35.79 78.94 35.33L78.64 34.1C78.64 33.63 78.19 33.32 77.89 33.48Z" fill="currentColor" fill-opacity="1.000000" fill-rule="nonzero"/>
		<path id="Vector" d="M77.74 37.96L77.89 39.35C77.89 39.66 78.34 39.96 78.64 39.96C79.09 39.96 79.38 39.5 79.24 39.19L79.24 37.65C79.24 37.18 78.79 37.03 78.49 37.03C78.04 37.18 77.74 37.49 77.74 37.96Z" fill="currentColor" fill-opacity="1.000000" fill-rule="nonzero"/>
	</g>
</svg>
