<svg width="200.426941" height="155.444458" viewBox="0 0 200.427 155.444" fill="none" xmlns="http://www.w3.org/2000/svg" xmlns:xlink="http://www.w3.org/1999/xlink">
	<desc>
			Created with Pixso.
	</desc>
	<defs>
		<clipPath id="clip127_352">
			<rect id="arrow" rx="-0.500000" width="191.000000" height="143.000000" transform="matrix(-0.998138 -0.0610034 -0.0610034 0.998138 200.927 12.2126)" fill="white" fill-opacity="0"/>
		</clipPath>
	</defs>
	<rect id="arrow" rx="-0.500000" width="191.000000" height="143.000000" transform="matrix(-0.998138 -0.0610034 -0.0610034 0.998138 200.927 12.2126)" fill="#FFFFFF" fill-opacity="0"/>
	<g clip-path="url(#clip127_352)">
		<path id="XMLID_1_" d="M40.17 122.3C46.42 81.27 79.75 48.19 114.47 48.24C114.67 49.29 115.61 50.26 115.28 51.28C109.68 68.54 117.52 82.07 129.62 93.94C138.93 103.31 149.37 110.95 162.23 114.84C165.9 115.84 169.04 117.25 173.03 117.49C187.65 118.64 196 110.24 195.27 95.96C194.79 86.36 189.78 78.74 183.82 71.39C173.65 58.6 160.36 48.78 144.74 42.13C141.61 40.91 138.49 39.32 134.06 37.5C149.22 21.09 169.87 17.6 189.5 11.04C186.04 10.83 183.06 10.13 179.57 10.43C161.5 13.21 144.02 19.2 130.45 31.31C126.51 34.69 123.04 36.83 117.18 36.47C94.54 35.34 75.9 43.51 60 58.84C48.08 70.28 38.9 83.81 32.63 98.96C31.06 102.75 29.59 106.49 26.82 112.53C19.53 100.7 13.17 90.69 6.85 80.47C6.04 80.68 5.62 81.13 4.8 81.34C4.41 83.39 2.7 86.36 3.39 88.22C6.58 97.21 9.99 105.95 13.73 114.72C17.25 122.7 21.72 130.33 25.24 138.31C28.78 146.03 32.54 147.95 37.97 142.07C47.4 132.03 56.12 121.73 64.79 110.87C65.95 109.39 65.34 106.27 65.22 103.94C62.52 104.29 58.84 103.98 57.15 105.43C51.22 110.76 46.44 115.96 40.17 122.3ZM125.45 47.92C151.26 53.9 171 66.99 182.67 90.22C185.03 95.28 186.79 101.51 181.76 105.09C178.41 107.47 172.17 108 167.68 107.21C150.53 103.58 137.89 93.2 127.49 79.88C120.32 70.38 118.01 60.41 125.45 47.92Z" fill="#FFAA00" fill-opacity="1.000000" fill-rule="evenodd"/>
	</g>
</svg>
