<svg width="96.000000" height="96.000000" viewBox="0 0 96 96" fill="currentColor" xmlns="http://www.w3.org/2000/svg" xmlns:xlink="http://www.w3.org/1999/xlink">
	<desc>
			Created with Pixso.
	</desc>
	<defs>
	</defs>
	<path id="Vector" d="M63.3 28.08C63.04 26.97 62.35 26.13 61.4 25.79C61.33 25.76 61.26 25.76 61.19 25.74C61.87 22.63 63.8 11.34 57.49 4.73C53.83 0.9 48.12 -0.62 40.53 0.22C40.39 0.16 40.24 0.13 40.09 0.12C34.12 -0.07 29.56 1.58 26.57 5C20.71 11.72 22.83 23.04 23.45 25.73C23.36 25.75 23.26 25.76 23.18 25.79C22.22 26.13 21.53 26.97 21.27 28.08C21.05 29.08 21.17 30.22 21.63 31.31C22.46 33.3 24.15 34.58 25.77 34.58C25.95 34.58 26.12 34.56 26.29 34.53C27.67 38.6 29.96 41.99 33.75 44.07L33.75 48.24L31.78 48.24L31.78 60.02L52.79 60.02L52.79 48.24L50.82 48.24L50.82 44.09C54.62 42.02 56.91 38.62 58.29 34.53C58.45 34.56 58.63 34.58 58.8 34.58C60.42 34.58 62.11 33.3 62.94 31.31C63.4 30.22 63.52 29.08 63.3 28.08ZM23.44 30.65C23.12 29.9 23.02 29.1 23.17 28.46C23.29 27.95 23.55 27.59 23.88 27.47C23.97 27.44 24.07 27.42 24.17 27.42C24.36 27.42 24.57 27.47 24.79 27.57C25.01 29.37 25.32 31.11 25.76 32.77C25.02 32.75 23.98 31.96 23.44 30.65ZM51.93 50.05C50 51.93 46.41 53.2 42.29 53.2C38.16 53.2 34.57 51.93 32.64 50.05L34.72 50.05C35.26 50.05 35.69 49.64 35.69 49.15L35.69 44.97C37.58 45.69 39.78 46.14 42.33 46.26C44.85 46.14 47.01 45.7 48.88 44.99L48.88 49.15C48.88 49.64 49.31 50.05 49.85 50.05L51.93 50.05ZM57.88 26.62C57.82 27.17 57.75 27.73 57.68 28.26C57.47 29.62 57.22 30.9 56.9 32.11C56.78 32.57 56.65 33.01 56.51 33.44C55.32 37.23 53.45 40.18 50.56 42.07C50.13 42.35 49.67 42.59 49.2 42.82C47.3 43.76 45.05 44.33 42.33 44.46C39.63 44.33 37.38 43.77 35.47 42.85C34.97 42.61 34.48 42.35 34.03 42.05C31.13 40.16 29.25 37.22 28.06 33.44C27.92 33 27.79 32.56 27.67 32.11C27.36 30.9 27.1 29.62 26.9 28.26C26.82 27.73 26.75 27.17 26.69 26.62C26.52 25.14 26.4 23.58 26.32 21.95C26.55 20.63 26.88 19.53 27.28 18.63C27.87 18.54 29.16 18.28 30.68 17.63C30.91 17.93 31.32 18.13 31.73 18.1C31.95 18.09 34.8 17.94 37.82 16.84C37.81 16.96 37.82 17.09 37.85 17.22C37.98 17.73 38.46 18.09 39.02 18.1C39.28 18.11 44.41 18.17 47.58 14.8C48.8 17.52 51.54 21.98 57.14 24.78L57.97 25.85C57.95 26.11 57.91 26.36 57.88 26.62ZM61.13 30.65C60.59 31.96 59.55 32.75 58.81 32.77C59.25 31.11 59.56 29.37 59.78 27.57C60 27.47 60.21 27.42 60.4 27.42C60.5 27.42 60.6 27.44 60.69 27.47C61.15 27.63 61.33 28.16 61.4 28.46C61.55 29.1 61.45 29.9 61.13 30.65ZM40.09 33L40.09 30.47C40.09 29.98 40.52 29.57 41.06 29.57C41.59 29.57 42.02 29.98 42.02 30.47L42.02 32.8L43.52 32.8C44.05 32.8 44.48 33.2 44.48 33.7C44.48 34.2 44.05 34.6 43.52 34.6L41.8 34.6C40.86 34.6 40.09 33.88 40.09 33ZM35.45 27.2C35.45 28.17 34.61 28.96 33.56 28.96C32.52 28.96 31.68 28.17 31.68 27.2C31.68 26.23 32.52 25.45 33.56 25.45C34.61 25.45 35.45 26.23 35.45 27.2ZM52.89 27.2C52.89 28.17 52.05 28.96 51.01 28.96C49.96 28.96 49.12 28.17 49.12 27.2C49.12 26.23 49.96 25.45 51.01 25.45C52.05 25.45 52.89 26.23 52.89 27.2ZM47.03 38.56C47.03 40.01 44.58 40.53 42.29 40.53C39.99 40.53 37.54 40.01 37.54 38.56C37.54 38.06 37.97 37.66 38.51 37.66C38.94 37.66 39.31 37.92 39.43 38.28C39.76 38.46 40.78 38.73 42.29 38.73C43.79 38.73 44.81 38.46 45.14 38.28C45.26 37.92 45.63 37.66 46.06 37.66C46.6 37.66 47.03 38.06 47.03 38.56ZM95.67 66.69C95.39 66.23 94.96 65.89 94.44 65.7C94.52 65.2 94.44 64.68 94.16 64.21C93.88 63.75 93.44 63.41 92.93 63.22C93.01 62.72 92.93 62.2 92.64 61.73C92.35 61.26 91.91 60.93 91.41 60.74C91.49 60.25 91.41 59.72 91.13 59.25C90.8 58.72 90.27 58.33 89.62 58.16C88.99 58 88.31 58.08 87.73 58.38L86.75 58.9C86.56 58.62 86.32 58.36 86.01 58.15L86.01 57.16L91.51 57.16C92.04 57.16 92.48 56.76 92.48 56.26C92.48 55.76 92.04 55.36 91.51 55.36L86.01 55.36L86.01 54.46L91.51 54.46C92.04 54.46 92.48 54.05 92.48 53.55C92.48 53.06 92.04 52.65 91.51 52.65L86.01 52.65L86.01 51.75L91.51 51.75C92.04 51.75 92.48 51.35 92.48 50.85C92.48 50.35 92.04 49.95 91.51 49.95L86.01 49.95L86.01 49.04L91.51 49.04C92.04 49.04 92.48 48.64 92.48 48.14C92.48 47.65 92.04 47.24 91.51 47.24L86.01 47.24L86.02 46.34L91.51 46.34C92.04 46.34 92.48 45.94 92.48 45.44C92.48 44.94 92.04 44.54 91.51 44.54L86.02 44.54C84.93 44.54 84.07 45.46 84.07 46.64L84.07 48.14L84.07 50.85L84.07 50.99C83.99 49.96 83.58 48.93 82.86 48.04C81.09 45.86 78.06 45.2 76.1 46.58C75.09 47.29 74.57 48.42 74.55 49.65C73.27 49.33 71.97 49.48 70.95 50.2C69.96 50.89 69.39 52.01 69.37 53.27C69.35 54.44 69.79 55.64 70.61 56.65C71.44 57.66 72.56 58.39 73.77 58.69C74.17 58.79 74.58 58.84 74.98 58.84C75.86 58.84 76.69 58.59 77.37 58.12C77.44 58.07 77.48 58.01 77.54 57.96L80.58 61.36L79.49 63.56C79.4 63.69 79.33 63.83 79.26 63.98L72.86 67.35L61.96 50.68C61.69 50.28 61.36 49.93 61.01 49.6C60.44 48.91 59.6 48.42 58.64 48.26C57.69 47.97 56.69 47.87 55.7 48.03L55.7 60.12C55.93 60.19 56.15 60.29 56.34 60.42C56.7 60.67 56.96 61.02 57.07 61.43L57.31 62.39L61.84 80.02L61.84 72.47L65.47 78.02C66.62 79.79 68.65 80.76 70.72 80.76C71.75 80.76 72.79 80.52 73.75 80.02L85.39 73.87C85.43 73.85 85.47 73.81 85.52 73.79C85.61 73.79 85.7 73.8 85.79 73.8C86.55 73.8 87.32 73.63 88.02 73.25L90.21 72.1L90.34 72.25C90.79 72.74 91.57 72.82 92.12 72.44L92.52 72.16L92.94 71.86L93.34 71.58C93.74 71.3 93.89 70.81 93.78 70.35L94.73 69.85C95.31 69.54 95.73 69.05 95.9 68.45C96.08 67.85 96 67.23 95.67 66.69ZM90.03 62.52L90.21 62.43C90.29 62.39 90.38 62.36 90.48 62.36C90.52 62.36 90.57 62.37 90.62 62.38C90.77 62.42 90.88 62.5 90.96 62.62C91.11 62.87 91.01 63.18 90.75 63.32L90.57 63.42L89.29 64.09L88.21 64.66C88.08 64.73 87.94 64.75 87.79 64.71C87.65 64.68 87.53 64.59 87.46 64.47C87.31 64.22 87.4 63.91 87.67 63.77L88.67 63.24L90.03 62.52ZM86.91 61.12L86.94 61.07C86.96 61.04 86.96 61 86.98 60.96C87 60.92 87.01 60.88 87.02 60.83L88.24 60.19L88.69 59.95C88.78 59.91 88.87 59.89 88.96 59.89C89.01 59.89 89.06 59.89 89.11 59.9C89.25 59.94 89.37 60.03 89.44 60.14C89.54 60.3 89.53 60.47 89.45 60.62C89.4 60.71 89.34 60.79 89.24 60.84L88.54 61.21L87.55 61.73L86.7 62.19C86.59 62.24 86.47 62.25 86.35 62.24L86.91 61.12ZM75.81 56.2C75.35 56.53 74.75 56.45 74.44 56.37C73.79 56.21 73.15 55.78 72.68 55.2C72.21 54.62 71.94 53.93 71.95 53.31C71.96 53 72.04 52.45 72.5 52.12C72.74 51.96 73.03 51.88 73.34 51.88C74.1 51.88 75.01 52.33 75.64 53.12C76.54 54.22 76.62 55.63 75.81 56.2ZM77.83 51.58C76.94 50.47 76.86 49.06 77.66 48.5C77.9 48.33 78.18 48.25 78.5 48.25C79.26 48.25 80.16 48.71 80.8 49.49C81.27 50.07 81.53 50.76 81.52 51.39C81.52 51.69 81.44 52.25 80.97 52.58C80.5 52.9 79.91 52.82 79.59 52.74C78.95 52.58 78.3 52.16 77.83 51.58ZM80.33 58.82C79.89 58.28 80 57.5 80.59 57.09C81.18 56.68 82.01 56.79 82.45 57.33C82.61 57.52 82.67 57.74 82.69 57.96C82.33 58.18 82.02 58.48 81.83 58.86L81.62 59.28C81.14 59.36 80.64 59.21 80.33 58.82ZM87.95 71.22L87.06 71.69C85.83 72.34 84.24 71.94 83.53 70.78L81.14 66.86C80.79 66.3 80.71 65.65 80.89 65.03L80.9 65.01L81.22 64.37L83.59 59.62C83.66 59.48 83.84 59.4 84.07 59.38C84.24 59.36 84.44 59.38 84.64 59.46C84.83 59.55 84.97 59.68 85.07 59.81C85.09 59.84 85.12 59.87 85.14 59.9C85.22 60.05 85.24 60.2 85.18 60.31L83.2 64.27L82.8 65.06C82.76 65.14 82.75 65.22 82.74 65.29C82.67 65.68 82.87 66.08 83.27 66.26C83.4 66.32 83.54 66.34 83.68 66.34C83.82 66.34 83.95 66.31 84.07 66.26L84.07 70.54C84.07 71.04 84.51 71.44 85.04 71.44C85.58 71.44 86.01 71.04 86.01 70.54L86.01 67.41L88.35 70.02L88.95 70.69L87.95 71.22ZM89.73 67.14C89.6 67.21 89.45 67.23 89.31 67.19C89.17 67.15 89.05 67.07 88.98 66.95C88.83 66.7 88.92 66.39 89.18 66.25L90.41 65.6L91.54 65L91.72 64.91C91.8 64.86 91.9 64.84 91.99 64.84C92.04 64.84 92.09 64.85 92.14 64.86C92.28 64.9 92.4 64.98 92.47 65.1C92.62 65.35 92.53 65.66 92.26 65.8L92.09 65.89L91.04 66.45L89.73 67.14ZM94.04 67.97C94 68.1 93.9 68.21 93.78 68.28C93.78 68.28 93.78 68.28 93.78 68.28L93.32 68.52L92.78 68.8L91.24 69.62C91.12 69.68 91 69.69 90.87 69.67C90.72 69.65 90.57 69.57 90.49 69.43C90.34 69.18 90.43 68.87 90.69 68.73L92.15 67.96L92.55 67.75L93.23 67.39C93.32 67.34 93.41 67.32 93.5 67.32C93.52 67.32 93.53 67.32 93.55 67.32C93.58 67.33 93.62 67.33 93.65 67.34C93.79 67.37 93.91 67.46 93.98 67.58C94.06 67.7 94.07 67.84 94.04 67.97ZM61.65 94.08L61.11 82.4C61.11 82.37 61.1 82.34 61.09 82.31L55.81 61.71C55.79 61.63 55.75 61.56 55.7 61.5C55.55 61.33 55.3 61.22 55.02 61.22L29.55 61.22C29.27 61.22 29.02 61.33 28.87 61.5C28.82 61.56 28.78 61.63 28.76 61.71L24.12 79.8L23.53 79.49L23.4 79.42C23.25 79.34 23.09 79.28 22.94 79.22L27.26 62.38L27.44 61.68L27.5 61.43C27.61 61.02 27.87 60.67 28.23 60.42C28.42 60.28 28.64 60.18 28.87 60.12L28.87 48.19L28.87 48.07C26.61 47.39 24.03 47.97 22.36 49.74L1.52 71.83C0.36 73.06 -0.17 74.69 0.04 76.31C0.26 77.92 1.21 79.38 2.65 80.31L14.61 87.97C14.98 88.21 15.38 88.39 15.78 88.54C16.27 89.07 16.85 89.51 17.51 89.85L21.72 92.04L22.36 92.37L22.73 92.56L22.96 92.68C22.97 92.68 22.98 92.68 22.99 92.69L22.92 94.08L22.86 95.37C22.85 95.55 22.95 95.68 23.03 95.76C23.18 95.91 23.42 96 23.66 96L60.91 96C61.15 96 61.39 95.91 61.54 95.76C61.62 95.68 61.72 95.55 61.71 95.37L61.65 94.08ZM15.3 74.54L22.73 66.67L22.73 79.13C22.49 79.03 22.24 78.96 22 78.9C21.86 78.79 21.73 78.66 21.58 78.56L15.3 74.54ZM29.85 85.22C29.77 85.37 29.56 85.43 29.4 85.34C29.4 85.34 29.4 85.34 29.4 85.34L25 83.06C24.75 82.93 24.46 82.94 24.21 83.04C23.97 83.12 23.76 83.28 23.63 83.48C23.51 83.69 23.48 83.94 23.55 84.17C23.62 84.4 23.78 84.6 24.01 84.71L24.01 84.71L29.29 87.45C29.39 87.5 29.43 87.59 29.44 87.63C29.46 87.68 29.47 87.77 29.41 87.87C29.36 87.96 29.26 88 29.22 88.01C29.17 88.03 29.07 88.04 28.96 87.99L23.81 85.31L23.69 85.25C23.58 85.19 23.46 85.17 23.34 85.16C23.13 85.14 22.92 85.21 22.73 85.31C22.72 85.32 22.7 85.33 22.68 85.34C22.54 85.43 22.41 85.53 22.32 85.67C22.19 85.88 22.16 86.13 22.23 86.36C22.29 86.56 22.43 86.72 22.61 86.84C22.64 86.86 22.66 86.89 22.69 86.9L22.73 86.92L22.78 86.95L23.25 87.19L27.1 89.19C27.2 89.24 27.24 89.33 27.26 89.37C27.27 89.42 27.29 89.51 27.23 89.61C27.17 89.7 27.08 89.74 27.03 89.75C26.98 89.76 26.88 89.78 26.78 89.72L23.22 87.88L22.73 87.63L22.58 87.55L22.31 87.41L21.95 87.22L21.88 87.18C21.57 87.03 21.1 87.09 20.8 87.26C20.51 87.43 20.34 87.73 20.35 88.05C20.35 88.22 20.41 88.37 20.51 88.51C20.59 88.63 20.7 88.74 20.85 88.81L21.85 89.33L22.48 89.66L22.73 89.79L23.12 89.99L24.22 90.56C24.32 90.62 24.36 90.7 24.38 90.75C24.39 90.79 24.4 90.89 24.35 90.98C24.26 91.13 24.05 91.18 23.9 91.1L23.08 90.68L22.73 90.5L22.45 90.35L21.82 90.02L19.51 88.82L18.45 88.28C17.55 87.81 16.84 87.06 16.45 86.17C15.93 84.97 15.99 83.65 16.61 82.65C17.37 81.43 18.83 80.53 20.46 80.53C21.12 80.53 21.8 80.68 22.48 81.01C22.5 81.02 22.52 81.03 22.54 81.04L22.73 81.14L23.07 81.32L23.65 81.62L24 81.81L29.72 84.81C29.83 84.86 29.87 84.95 29.88 84.99C29.89 85.04 29.91 85.13 29.85 85.22ZM53.82 80.75C53.8 82.34 52.15 83.03 51.31 81.8L50.47 80.58C50.25 81.31 49.91 81.99 49.46 82.61C49.47 82.71 49.48 82.81 49.48 82.9C49.48 86.99 46.26 90.31 42.29 90.31C38.31 90.31 35.09 86.99 35.09 82.9C35.09 82.81 35.1 82.71 35.11 82.61C34.66 81.99 34.32 81.31 34.1 80.58L33.26 81.8C32.42 83.03 30.78 82.34 30.75 80.75C30.73 80.01 30.71 79.24 30.65 78.49C30.47 75.85 34.34 74.61 36.08 74.18C37.63 73.15 39.83 72.68 42.29 72.68C44.74 72.68 46.94 73.15 48.49 74.18C50.23 74.61 54.1 75.85 53.92 78.49C53.87 79.24 53.84 80.01 53.82 80.75ZM39.34 86.24C39.34 85.13 40.66 84.23 42.29 84.23C43.91 84.23 45.23 85.13 45.23 86.24C45.23 87.36 43.91 88.26 42.29 88.26C40.66 88.26 39.34 87.36 39.34 86.24Z" fill="curentColor" fill-opacity="1.000000" fill-rule="nonzero"/>
</svg>
