<svg width="40.000000" height="40.000000" viewBox="0 0 40 40" fill="none" xmlns="http://www.w3.org/2000/svg" xmlns:xlink="http://www.w3.org/1999/xlink">
	<desc>
			Created with Pixso.
	</desc>
	<defs>
		<clipPath id="clip130_844">
			<rect id="iconoir:instagram" rx="0.000000" width="39.000000" height="39.000000" transform="translate(0.500000 0.500000)" fill="white" fill-opacity="0"/>
		</clipPath>
	</defs>
	<rect id="iconoir:instagram" rx="0.000000" width="39.000000" height="39.000000" transform="translate(0.500000 0.500000)" fill="#FFFFFF" fill-opacity="0"/>
	<g clip-path="url(#clip130_844)">
		<path id="Vector" d="M24.71 24.71C25.96 23.46 26.66 21.76 26.66 19.99C26.66 18.23 25.96 16.53 24.71 15.28C23.46 14.03 21.76 13.33 20 13.33C18.23 13.33 16.53 14.03 15.28 15.28C14.03 16.53 13.33 18.23 13.33 19.99C13.33 21.76 14.03 23.46 15.28 24.71C16.53 25.96 18.23 26.66 20 26.66C21.76 26.66 23.46 25.96 24.71 24.71Z" stroke="#FF9F0E" stroke-opacity="1.000000" stroke-width="2.625000" stroke-linejoin="round"/>
		<path id="Vector" d="M5 13.33C5 11.12 5.87 9 7.44 7.44C9 5.87 11.12 5 13.33 5L26.66 5C28.87 5 30.99 5.87 32.55 7.44C34.12 9 35 11.12 35 13.33L35 26.66C35 28.87 34.12 30.99 32.55 32.55C30.99 34.12 28.87 35 26.66 35L13.33 35C11.12 35 9 34.12 7.44 32.55C5.87 30.99 5 28.87 5 26.66L5 13.33Z" stroke="#FF9F0E" stroke-opacity="1.000000" stroke-width="2.625000"/>
		<path id="Vector" d="M29.16 10.85L29.18 10.83" stroke="#FF9F0E" stroke-opacity="1.000000" stroke-width="2.625000" stroke-linejoin="round" stroke-linecap="round"/>
	</g>
</svg>
