<svg width="32.000000" height="32.000000" viewBox="0 0 32 32" fill="currentColor" xmlns="http://www.w3.org/2000/svg" xmlns:xlink="http://www.w3.org/1999/xlink">
	<desc>
			Created with Pixso.
	</desc>
	<defs>
		<clipPath id="clip130_1048">
			<rect id="material-symbols:alternate-email" rx="-0.500000" width="31.000000" height="31.000000" transform="translate(0.500000 0.500000)" fill="white" fill-opacity="0"/>
		</clipPath>
	</defs>
	<rect id="material-symbols:alternate-email" rx="-0.500000" width="31.000000" height="31.000000" transform="translate(0.500000 0.500000)" fill="#FFFFFF" fill-opacity="0"/>
	<g clip-path="url(#clip130_1048)">
		<path id="Vector" d="M16 29.33C14.17 29.33 12.45 28.98 10.83 28.28C9.21 27.58 7.79 26.62 6.58 25.41C5.37 24.2 4.41 22.78 3.71 21.16C3.01 19.54 2.66 17.82 2.66 16C2.66 14.15 3.01 12.42 3.71 10.81C4.41 9.2 5.37 7.79 6.58 6.58C7.79 5.37 9.21 4.41 10.83 3.71C12.45 3.01 14.17 2.66 16 2.66C17.84 2.66 19.57 3.01 21.18 3.71C22.79 4.41 24.2 5.37 25.41 6.58C26.62 7.79 27.58 9.2 28.28 10.81C28.98 12.42 29.33 14.15 29.33 16L29.33 17.93C29.33 19.24 28.88 20.36 27.98 21.28C27.08 22.2 25.97 22.66 24.66 22.66C23.86 22.66 23.12 22.48 22.43 22.13C21.74 21.77 21.17 21.31 20.73 20.73C20.13 21.33 19.42 21.8 18.61 22.15C17.8 22.49 16.93 22.66 16 22.66C14.15 22.66 12.58 22.01 11.28 20.71C9.98 19.41 9.33 17.84 9.33 16C9.33 14.15 9.98 12.58 11.28 11.28C12.58 9.98 14.15 9.33 16 9.33C17.84 9.33 19.41 9.98 20.71 11.28C22.01 12.58 22.66 14.15 22.66 16L22.66 17.93C22.66 18.57 22.86 19.08 23.26 19.44C23.66 19.81 24.13 20 24.66 20C25.2 20 25.66 19.81 26.06 19.44C26.46 19.08 26.66 18.57 26.66 17.93L26.66 16C26.66 13.08 25.61 10.58 23.51 8.48C21.41 6.38 18.91 5.33 16 5.33C13.08 5.33 10.58 6.38 8.48 8.48C6.38 10.58 5.33 13.08 5.33 16C5.33 18.91 6.38 21.41 8.48 23.51C10.58 25.61 13.08 26.66 16 26.66L22.66 26.66L22.66 29.33L16 29.33ZM16 20C17.11 20 18.05 19.61 18.83 18.83C19.61 18.05 20 17.11 20 16C20 14.88 19.61 13.94 18.83 13.16C18.05 12.38 17.11 12 16 12C14.88 12 13.94 12.38 13.16 13.16C12.38 13.94 12 14.88 12 16C12 17.11 12.38 18.05 13.16 18.83C13.94 19.61 14.88 20 16 20Z" fill="currentColor" fill-opacity="1.000000" fill-rule="nonzero"/>
	</g>
</svg>
