<svg width="32.000000" height="32.000000" viewBox="0 0 32 32" fill="none" xmlns="http://www.w3.org/2000/svg" xmlns:xlink="http://www.w3.org/1999/xlink">
	<desc>
			Created with Pixso.
	</desc>
	<defs>
		<clipPath id="clip130_1036">
			<rect id="material-symbols:sound-detection-dog-barking" rx="-0.500000" width="31.000000" height="31.000000" transform="translate(0.500000 0.500000)" fill="white" fill-opacity="0"/>
		</clipPath>
	</defs>
	<rect id="material-symbols:sound-detection-dog-barking" rx="-0.500000" width="31.000000" height="31.000000" transform="translate(0.500000 0.500000)" fill="#FFFFFF" fill-opacity="0"/>
	<g clip-path="url(#clip130_1036)">
		<path id="Vector" d="M6.46 29.33L6.46 16.53L6.09 16.16C5.85 15.92 5.66 15.63 5.53 15.29C5.39 14.96 5.33 14.62 5.33 14.26C5.33 13.91 5.39 13.57 5.53 13.25C5.66 12.92 5.85 12.64 6.09 12.39L10.46 8L15.79 8L21.13 2.66L23.86 5.39C24.75 6.28 25.44 7.29 25.93 8.41C26.42 9.53 26.66 10.73 26.66 12C26.66 13.26 26.42 14.46 25.93 15.58C25.44 16.7 24.75 17.71 23.86 18.6L21.13 21.33L21.13 29.33L6.46 29.33ZM9.13 26.66L18.46 26.66L18.46 20.23L21.96 16.73C22.61 16.08 23.11 15.36 23.46 14.56C23.82 13.76 23.99 12.91 23.99 12C23.99 11.11 23.81 10.26 23.44 9.46C23.08 8.66 22.58 7.94 21.96 7.29L21.13 6.43L16.89 10.66L11.56 10.66L10.79 11.43L13.03 13.66C13.65 14.28 14.13 15 14.48 15.81C14.82 16.62 14.99 17.47 14.99 18.36C14.99 19.25 14.83 20.1 14.49 20.91C14.16 21.72 13.67 22.45 13.03 23.1L9.13 19.2L9.13 26.66Z" fill="currentColor" fill-opacity="1.000000" fill-rule="nonzero"/>
	</g>
</svg>
