<svg width="32.000000" height="32.000000" viewBox="0 0 32 32" fill="currentColor" xmlns="http://www.w3.org/2000/svg" xmlns:xlink="http://www.w3.org/1999/xlink">
	<desc>
			Created with Pixso.
	</desc>
	<defs>
		<clipPath id="clip130_1042">
			<rect id="material-symbols:phone-in-talk-watchface-indicator-outline" rx="-0.500000" width="31.000000" height="31.000000" transform="translate(0.500000 0.500000)" fill="white" fill-opacity="0"/>
		</clipPath>
	</defs>
	<rect id="material-symbols:phone-in-talk-watchface-indicator-outline" rx="-0.500000" width="31.000000" height="31.000000" transform="translate(0.500000 0.500000)" fill="#FFFFFF" fill-opacity="0"/>
	<g clip-path="url(#clip130_1042)">
		<path id="Vector" d="M27.83 29.33C24.36 29.33 21.1 28.67 18.05 27.36C14.99 26.05 12.32 24.26 10.05 21.98C7.77 19.7 5.97 17.03 4.65 13.98C3.32 10.92 2.66 7.65 2.66 4.16C2.64 3.76 2.77 3.41 3.06 3.11C3.35 2.81 3.71 2.66 4.13 2.66L9.33 2.66C9.73 2.66 10.07 2.81 10.36 3.11C10.65 3.41 10.8 3.77 10.8 4.2C10.8 5.17 10.86 6.1 11 6.96C11.13 7.83 11.34 8.65 11.63 9.43C11.74 9.67 11.76 9.92 11.7 10.18C11.63 10.43 11.5 10.67 11.3 10.9L7.96 14.23C8.92 16.18 10.27 18.04 12.03 19.79C13.78 21.55 15.67 22.95 17.7 24L21.03 20.66C21.23 20.46 21.46 20.33 21.73 20.26C22 20.2 22.26 20.22 22.53 20.33C23.35 20.6 24.2 20.8 25.08 20.94C25.96 21.09 26.86 21.16 27.8 21.16C28.22 21.16 28.58 21.32 28.88 21.63C29.18 21.94 29.33 22.32 29.33 22.76L29.33 27.86C29.33 28.26 29.18 28.61 28.9 28.9C28.61 29.18 28.25 29.33 27.83 29.33ZM20.16 25.33C21.16 25.71 22.21 26.01 23.3 26.23C24.38 26.45 25.51 26.6 26.66 26.66L26.66 23.8C25.97 23.75 25.27 23.67 24.55 23.56C23.82 23.45 23.11 23.28 22.4 23.06L20.16 25.33ZM26.66 16C26.66 13.02 25.63 10.5 23.56 8.43C21.5 6.36 18.97 5.33 16 5.33L16 2.66C17.84 2.66 19.57 3.01 21.2 3.71C22.82 4.41 24.23 5.36 25.43 6.56C26.63 7.76 27.58 9.17 28.28 10.8C28.98 12.42 29.33 14.15 29.33 16L26.66 16ZM21.33 16C21.33 14.53 20.81 13.27 19.76 12.23C18.72 11.18 17.46 10.66 16 10.66L16 8C18.22 8 20.11 8.77 21.66 10.33C23.22 11.88 24 13.77 24 16L21.33 16ZM6.66 11.76L8.86 9.53C8.68 8.88 8.53 8.21 8.41 7.5C8.29 6.78 8.21 6.06 8.16 5.33L5.36 5.33C5.41 6.4 5.54 7.46 5.76 8.53C5.98 9.6 6.28 10.67 6.66 11.76Z" fill="currentColor" fill-opacity="1.000000" fill-rule="nonzero"/>
	</g>
</svg>
