<svg width="96.000046" height="96.000023" viewBox="0 0 96 96" fill="currentColor" xmlns="http://www.w3.org/2000/svg" xmlns:xlink="http://www.w3.org/1999/xlink">
	<desc>
			Created with Pixso.
	</desc>
	<defs/>
	<path id="Vector" d="M18.69 76.78L22.15 65.15L20.89 61.72C18.22 61.27 16.01 59.93 14.6 58.14L9.88 73.8L0.6 89.46C-0.66 91.55 0.12 94.23 2.33 95.43C4.53 96.62 7.36 95.87 8.62 93.78L18.37 77.68C18.53 77.38 18.69 77.08 18.69 76.78Z" fill="currentColor" fill-opacity="1.000000" fill-rule="nonzero"/>
	<path id="Vector" d="M3.27 44.29C4.71 45.05 6.65 44.44 7.45 42.92L14.69 28.95L15.98 28.04L16.62 24.24C16.94 22.27 17.91 20.44 19.2 18.92L10.51 24.24C10.02 24.54 9.7 25 9.38 25.46L1.82 40.19C1.01 41.71 1.66 43.53 3.27 44.29Z" fill="currentColor" fill-opacity="1.000000" fill-rule="nonzero"/>
	<path id="Vector" d="M39.87 8.11C39.87 12.59 35.9 16.22 31.01 16.22C26.12 16.22 22.15 12.59 22.15 8.11C22.15 3.63 26.12 0 31.01 0C35.9 0 39.87 3.63 39.87 8.11Z" fill="currentColor" fill-opacity="1.000000" fill-rule="evenodd"/>
	<path id="Vector" d="M86.9 76.77C86.9 76.77 87.06 76.92 87.06 77.07C88.32 76.32 88.79 74.67 88.79 74.67C93.49 76.02 94.44 71.84 94.44 71.84C95.06 70.64 91.92 69.45 91.92 69.45C91.77 66.46 88.16 65.56 88.16 65.56C86.43 64.07 86.9 65.56 86.9 65.56C85.18 65.41 84.08 66.01 84.08 66.01C81.25 63.47 79.53 67.35 79.53 67.35C79.06 67.35 78.74 67.5 78.27 67.5C81.1 71.09 84.08 74.23 86.9 76.77Z" fill="currentColor" fill-opacity="1.000000" fill-rule="nonzero"/>
	<path id="Vector" d="M91.28 86.34C90.47 85.58 84.6 82.26 84.6 82.26C85.9 81.65 86.07 79.08 86.07 78.17C82.97 75.45 79.71 71.97 76.45 68.03C74.82 68.34 64.06 72.57 53.63 68.18C49.72 66.52 46.3 68.94 46.3 68.94C43.36 72.12 44.67 77.26 44.67 77.26L48.74 73.18C50.86 71.66 51.68 71.97 52.16 72.72C52.49 73.33 52.33 74.09 51.84 74.69C47.93 78.47 49.23 82.41 49.23 82.41L43.69 86.95C41.57 89.06 44.02 90.73 44.02 90.73C44.5 89.06 48.42 86.49 48.42 86.49C48.25 88.46 49.23 88.91 49.23 88.91C52 88.16 51.35 85.58 51.35 85.58C55.75 85.43 56.24 83.62 56.24 83.62C60.64 84.37 62.76 81.65 62.76 81.65C63.9 83.62 73.84 85.74 73.84 85.74C74.49 86.04 78.24 93 78.24 93C79.06 93.15 79.87 94.21 79.87 94.21C81.66 95.27 85.41 94.06 85.41 94.06C85.09 92.7 83.13 92.7 83.13 92.7C78.73 92.7 79.38 85.89 79.38 85.89C79.55 84.98 82.97 86.64 82.97 86.64L90.47 89.22C94.21 91.03 95.84 88.91 95.84 88.91C96.99 87.25 91.28 86.34 91.28 86.34Z" fill="currentColor" fill-opacity="1.000000" fill-rule="nonzero"/>
	<path id="Vector" d="M54.64 33.04C58.36 40.57 66.29 55.49 76.49 67.6C76.98 67.45 77.62 67.45 78.27 67.31C78.11 67.16 77.95 67.01 77.79 66.71C67.59 54.75 59.66 39.83 56.1 32.45C55.45 32.89 54.8 33.04 54.64 33.04Z" fill="currentColor" fill-opacity="1.000000" fill-rule="nonzero"/>
	<path id="Vector" d="M55.44 31.3C57.07 30.7 58.04 29.05 57.39 27.55C56.74 26.06 54.95 25.16 53.32 25.76L44.52 28.6C34.26 19.77 33.77 18.27 29.7 17.67C24.49 16.93 19.6 20.37 18.79 25.16L14.88 50.31C14.06 55.09 17.81 59.59 23.02 60.33C23.18 60.33 23.35 60.33 23.51 60.33L27.74 72.01L19.11 83.68C17.64 85.63 18.13 88.47 20.41 89.82C22.53 91.17 25.63 90.72 27.09 88.62L37.19 75.15C38.01 73.95 38.33 72.61 37.84 71.26L32.47 56.44C33.28 55.39 33.93 54.05 34.1 52.7L37.68 30.4L41.75 33.99C42.57 34.74 43.87 35.04 45.01 34.59L55.44 31.3Z" fill="currentColor" fill-opacity="1.000000" fill-rule="nonzero"/>
</svg>
