<svg width="73" height="72" viewBox="0 0 161 123" fill="none" xmlns="http://www.w3.org/2000/svg" xmlns:xlink="http://www.w3.org/1999/xlink">
	<desc>
			Created with Pixso.
	</desc>
	<defs/>
	<path d="M43.89 3.65C-7.04 21.98 0.37 52.14 0.37 52.14C0.37 52.14 4.08 94.91 43.89 114.47C83.71 134.02 107.33 118.95 150.39 79.43C193.45 39.91 94.83 -14.68 43.89 3.65Z" fill="currentColor" fill-opacity="1.000000" fill-rule="evenodd"/>
	<path d="M91.21 46.9C91.18 47.2 91 47.52 90.59 47.85C86.53 51.06 82.48 54.28 78.42 57.5C77.56 58.19 75.5 58.35 75.5 56.73C75.5 50.78 75.5 44.82 75.5 38.87C75.5 37.41 77.71 37.05 78.59 37.64C82.65 40.38 86.7 43.11 90.75 45.85C91.22 46.16 91.32 46.54 91.21 46.9ZM105 51.98C103.71 82.79 51.79 76.4 57.42 43.97C59.79 30.36 71.09 23.2 83.5 24.06C97.48 25.04 104.74 37.75 104.99 51.77C104.99 51.81 104.97 51.84 104.97 51.87C104.97 51.91 105 51.93 105 51.98ZM102.39 52.37C102.18 42.45 98.66 31.73 89.58 27.46C77.54 21.81 63.36 28.48 60.3 42.22C57.56 54.51 63.65 65.41 74.78 69.35C86.65 73.55 101.74 66.94 102.39 52.37Z" fill="#FFFFFF" fill-opacity="1.000000" fill-rule="nonzero"/>
	<path d="M48.21 93.77L42.82 93.77L42.82 83.62L41.32 83.62L41.32 95L48.21 95L48.21 93.77ZM51.23 94.67Q52.08 95.15 53.21 95.15Q54.47 95.15 55.36 94.57Q55.96 94.18 56.39 93.52L55.51 92.83Q55.16 93.28 54.71 93.58Q54.64 93.62 54.58 93.66Q54.05 93.97 53.28 93.97Q52.69 93.97 52.2 93.73Q51.82 93.54 51.51 93.2Q51.41 93.09 51.32 92.97Q50.8 92.25 50.78 91.18L56.5 91.18L56.5 90.58Q56.5 88.56 55.59 87.47Q55.32 87.15 54.98 86.92Q54.19 86.39 53.03 86.39Q52.59 86.39 52.17 86.49Q51.64 86.63 51.16 86.94Q50.92 87.1 50.71 87.28Q50.16 87.77 49.81 88.49Q49.33 89.48 49.33 90.74L49.33 91Q49.33 92.57 50.07 93.61Q50.22 93.83 50.41 94.02Q50.78 94.41 51.23 94.67ZM63.19 94.1Q63.27 94.75 63.39 95L64.91 95L64.91 94.87Q64.61 94.18 64.61 93.02L64.61 89.13Q64.59 88.2 64.15 87.56Q63.98 87.32 63.75 87.12Q63.74 87.11 63.74 87.1Q62.91 86.39 61.46 86.39Q60.55 86.39 59.78 86.72Q59.78 86.73 59.77 86.73Q59.01 87.07 58.56 87.65Q58.56 87.66 58.55 87.66Q58.16 88.17 58.11 88.72Q58.1 88.8 58.1 88.89L59.56 88.89Q59.56 88.72 59.61 88.57Q59.72 88.21 60.08 87.94Q60.13 87.9 60.19 87.87Q60.68 87.55 61.38 87.55Q62.24 87.55 62.7 87.98Q62.71 87.99 62.71 88Q62.81 88.1 62.89 88.21Q63.17 88.62 63.17 89.21L63.17 89.87L61.76 89.87Q59.94 89.87 58.94 90.6Q58.51 90.91 58.26 91.33Q57.93 91.89 57.93 92.65Q57.93 93.22 58.15 93.69Q58.35 94.11 58.73 94.44Q58.89 94.59 59.07 94.7Q59.78 95.15 60.78 95.15Q61.4 95.15 61.93 94.95Q62.62 94.69 63.19 94.1ZM70.25 87.78Q70.64 87.78 70.96 87.84L70.96 86.5Q70.75 86.39 70.32 86.39Q69.71 86.39 69.22 86.64Q68.68 86.92 68.31 87.52L68.28 86.54L66.88 86.54L66.88 95L68.32 95L68.32 89Q68.54 88.47 68.94 88.17Q69.45 87.78 70.25 87.78ZM73.71 87.6L73.66 86.54L72.29 86.54L72.29 95L73.74 95L73.74 88.97Q73.94 88.57 74.24 88.26Q74.39 88.11 74.57 87.99Q74.72 87.88 74.89 87.8Q75.3 87.61 75.8 87.61Q76.66 87.61 77.07 88.04Q77.07 88.05 77.08 88.05Q77.49 88.49 77.5 89.4L77.5 95L78.94 95L78.94 89.41Q78.93 87.71 78.08 86.97Q77.41 86.39 76.24 86.39Q75.45 86.39 74.81 86.7Q74.19 87 73.71 87.6ZM86.48 87.48L86.44 86.54L85.07 86.54L85.07 95L86.52 95L86.52 88.82Q86.75 88.29 87.15 87.99Q87.66 87.61 88.46 87.61Q89.35 87.61 89.8 88.05Q90.27 88.51 90.27 89.46L90.27 95L91.72 95L91.72 89.39Q91.79 88.78 92.1 88.35Q92.21 88.21 92.34 88.09Q92.49 87.96 92.66 87.86Q93.1 87.61 93.67 87.61Q94.65 87.61 95.07 88.06Q95.48 88.51 95.48 89.42L95.48 95L96.92 95L96.92 89.33Q96.9 87.77 96.11 87.04Q95.41 86.39 94.1 86.39Q93.17 86.39 92.5 86.76Q92.03 87.02 91.68 87.4Q91.53 87.56 91.4 87.75Q91.17 87.26 90.8 86.95Q90.13 86.39 88.99 86.39Q87.99 86.39 87.25 86.82Q86.82 87.08 86.48 87.48ZM99.21 88.46Q98.72 89.45 98.72 90.69L98.72 90.79Q98.72 92.52 99.54 93.65Q99.66 93.81 99.79 93.96Q100.21 94.43 100.73 94.71Q101.53 95.15 102.57 95.15Q103.5 95.15 104.25 94.79Q104.43 94.71 104.59 94.6Q104.89 94.42 105.14 94.18Q105.63 93.72 105.94 93.08Q106.42 92.1 106.42 90.86L106.42 90.76Q106.42 89 105.57 87.85Q105.47 87.71 105.35 87.58Q104.94 87.12 104.42 86.83Q103.61 86.39 102.56 86.39Q101.68 86.39 100.96 86.72Q100.76 86.81 100.57 86.92Q100.35 87.06 100.15 87.23Q99.57 87.72 99.21 88.46ZM111.6 87.78Q111.99 87.78 112.32 87.84L112.32 86.5Q112.1 86.39 111.68 86.39Q111.06 86.39 110.57 86.64Q110.03 86.92 109.66 87.52L109.64 86.54L108.23 86.54L108.23 95L109.68 95L109.68 89Q109.9 88.47 110.29 88.17Q110.8 87.78 111.6 87.78ZM115.03 94.67Q115.88 95.15 117 95.15Q118.27 95.15 119.16 94.57Q119.76 94.18 120.19 93.52L119.31 92.83Q118.96 93.28 118.5 93.58Q118.44 93.62 118.38 93.66Q117.85 93.97 117.08 93.97Q116.48 93.97 116 93.73Q115.62 93.54 115.3 93.2Q115.2 93.09 115.12 92.97Q114.6 92.25 114.57 91.18L120.3 91.18L120.3 90.58Q120.3 88.56 119.39 87.47Q119.12 87.15 118.78 86.92Q117.98 86.39 116.82 86.39Q116.38 86.39 115.97 86.49Q115.44 86.63 114.95 86.94Q114.72 87.1 114.51 87.28Q113.96 87.77 113.61 88.49Q113.13 89.48 113.13 90.74L113.13 91Q113.13 92.57 113.86 93.61Q114.02 93.83 114.21 94.02Q114.58 94.41 115.03 94.67ZM52.21 87.74Q52.58 87.57 53.03 87.57Q53.63 87.57 54.07 87.84Q54.29 87.98 54.46 88.18Q55 88.78 55.06 89.89L55.06 90L50.82 90Q50.96 88.85 51.56 88.21Q51.85 87.9 52.21 87.74ZM100.83 93.12Q100.18 92.27 100.18 90.86Q100.18 89.28 100.83 88.42Q101.16 87.99 101.6 87.78Q102.03 87.57 102.56 87.57Q103.11 87.57 103.56 87.8Q103.99 88.01 104.31 88.44Q104.97 89.3 104.97 90.69Q104.97 92.25 104.32 93.11Q104.02 93.52 103.61 93.73Q103.15 93.97 102.57 93.97Q102 93.97 101.55 93.74Q101.14 93.52 100.83 93.12ZM116.01 87.74Q116.38 87.57 116.82 87.57Q117.43 87.57 117.87 87.84Q118.09 87.98 118.26 88.18Q118.79 88.78 118.85 89.89L118.85 90L114.62 90Q114.76 88.85 115.35 88.21Q115.65 87.9 116.01 87.74ZM61.49 93.84Q61.25 93.89 61 93.89Q60.38 93.89 59.96 93.61Q59.89 93.56 59.83 93.51Q59.69 93.39 59.59 93.24Q59.38 92.92 59.38 92.45Q59.38 92.05 59.55 91.76Q60.06 90.89 62.03 90.89L63.17 90.89L63.17 92.63Q63.12 92.72 63.06 92.81Q62.79 93.25 62.28 93.54Q61.9 93.76 61.49 93.84Z" fill="#FFFFFF" fill-opacity="1.000000" fill-rule="evenodd"/>
</svg>
