<svg width="32.000000" height="32.000000" viewBox="0 0 32 32" fill="currentColor" xmlns="http://www.w3.org/2000/svg" xmlns:xlink="http://www.w3.org/1999/xlink">
	<desc>
			Created with Pixso.
	</desc>
	<defs>
		<clipPath id="clip130_1030">
			<rect id="fluent:people-32-regular" rx="-0.500000" width="31.000000" height="31.000000" transform="translate(0.500000 0.500000)" fill="white" fill-opacity="0"/>
		</clipPath>
	</defs>
	<rect id="fluent:people-32-regular" rx="-0.500000" width="31.000000" height="31.000000" transform="translate(0.500000 0.500000)" fill="#FFFFFF" fill-opacity="0"/>
	<g clip-path="url(#clip130_1030)">
		<path id="Vector" d="M11.38 9.71C11.38 8.58 11.82 7.51 12.62 6.71C13.41 5.91 14.49 5.47 15.61 5.47C16.74 5.47 17.81 5.91 18.61 6.71C19.4 7.51 19.85 8.58 19.85 9.71C19.85 10.83 19.4 11.91 18.61 12.71C17.81 13.5 16.74 13.95 15.61 13.95C14.49 13.95 13.41 13.5 12.62 12.71C11.82 11.91 11.38 10.83 11.38 9.71ZM15.61 3.04C13.85 3.04 12.16 3.75 10.91 5C9.66 6.25 8.96 7.94 8.96 9.71C8.96 11.48 9.66 13.17 10.91 14.42C12.16 15.67 13.85 16.38 15.61 16.38C17.38 16.38 19.07 15.67 20.32 14.42C21.57 13.17 22.27 11.48 22.27 9.71C22.27 7.94 21.57 6.25 20.32 5C19.07 3.75 17.38 3.04 15.61 3.04ZM5.33 22.44C5.33 21.47 5.71 20.55 6.39 19.87C7.07 19.18 8 18.8 8.96 18.8L22.27 18.8C23.23 18.8 24.16 19.18 24.84 19.87C25.52 20.55 25.9 21.47 25.9 22.44L25.9 22.71C25.9 22.82 25.89 22.94 25.88 23.05C25.85 23.26 25.81 23.54 25.72 23.88C25.49 24.77 25.07 25.6 24.51 26.33C23.09 28.15 20.43 29.71 15.61 29.71C10.8 29.71 8.14 28.15 6.72 26.33C6.15 25.6 5.74 24.77 5.51 23.88C5.42 23.52 5.36 23.16 5.33 22.79C5.33 22.76 5.33 22.74 5.33 22.71L5.33 22.68L5.33 22.67L5.33 22.44ZM7.75 22.65L7.75 22.67C7.77 22.87 7.8 23.07 7.85 23.27C7.96 23.69 8.18 24.26 8.63 24.84C9.48 25.93 11.35 27.29 15.61 27.29C19.87 27.29 21.75 25.93 22.6 24.84C22.96 24.37 23.23 23.84 23.38 23.27C23.43 23.07 23.46 22.87 23.48 22.67L23.48 22.65L23.48 22.44C23.48 22.12 23.35 21.81 23.13 21.58C22.9 21.35 22.59 21.22 22.27 21.22L8.96 21.22C8.64 21.22 8.33 21.35 8.1 21.58C7.88 21.81 7.75 22.12 7.75 22.44L7.75 22.65Z" fill="currentColor" fill-opacity="1.000000" fill-rule="nonzero"/>
	</g>
</svg>
