<svg width="43.004761" height="43.000000" viewBox="0 0 43.0048 43" fill="none" xmlns="http://www.w3.org/2000/svg" xmlns:xlink="http://www.w3.org/1999/xlink">
	<desc>
			Created with Pixso.
	</desc>
	<defs/>
	<path id="Vector" d="M20.9 24.93C21.15 29.89 24.75 30.52 28.1 34.69C33.07 40.65 37.06 38.88 37.74 34.58C38.38 30.45 34.89 27.51 34.66 23.09C34.43 18.68 37.71 14.69 36.71 10.75C35.71 6.81 31.57 6.18 27.17 13.42C24.2 18.42 20.78 20.01 20.9 24.93Z" fill="#FCB62A" fill-opacity="1.000000" fill-rule="nonzero"/>
	<path id="Vector" d="M13.39 12.7C16.2 14.99 19.55 14.17 20.74 11.66C21.93 9.15 20.49 4.74 17.65 2.61C14.83 0.33 11.49 1.15 10.3 3.66C9.14 6.01 10.58 10.42 13.39 12.7Z" fill="#FF9F0E" fill-opacity="1.000000" fill-rule="evenodd"/>
	<path id="Vector" d="M6.44 25.43C9.76 25.61 12.77 23.34 13.14 20.02C13.48 16.87 11.09 14.1 7.67 13.89C4.35 13.71 1.33 15.99 0.96 19.3C0.63 22.45 3.13 25.26 6.44 25.43Z" fill="#FCB62A" fill-opacity="1.000000" fill-rule="nonzero"/>
	<path id="Vector" d="M8.02 41.26C11.03 41.33 14.04 38.75 14.45 35.39C14.83 32.21 12.9 28.66 9.79 28.56C6.77 28.5 3.76 31.08 3.35 34.43C2.98 37.61 5.01 41.2 8.02 41.26Z" fill="#FFAA00" fill-opacity="1.000000" fill-rule="nonzero"/>
</svg>
