<svg width="32.000000" height="14.000000" viewBox="0 0 32 14" fill="none" xmlns="http://www.w3.org/2000/svg" xmlns:xlink="http://www.w3.org/1999/xlink">
	<desc>
			Created with Pixso.
	</desc>
	<defs/>
	<path id="Vector" d="M31.79 6.01C32.15 5.18 31.96 3.96 31.79 3.06C31.66 2.28 31.34 1.65 30.86 1.09C30.38 0.53 29.67 0.26 29 0.1C28.47 -0.04 27.67 -0.05 27.14 0.1C26.62 0.25 26.63 0.69 26.21 1.09C25.17 2.04 23.83 2.1 22.5 2.07L9.49 2.07C8.16 2.1 6.82 2.04 5.78 1.09C5.36 0.69 5.38 0.25 4.85 0.1C4.32 -0.05 3.52 -0.04 2.99 0.1C2.32 0.26 1.61 0.53 1.13 1.09C0.65 1.65 0.33 2.28 0.2 3.06C0.03 3.96 -0.16 5.18 0.2 6.01C0.33 6.31 1.13 6.66 1.13 7C1.13 7.33 0.33 7.68 0.2 7.98C-0.16 8.81 0.04 10.03 0.2 10.93C0.33 11.71 0.65 12.34 1.13 12.9C1.61 13.46 2.32 13.73 2.99 13.89C3.52 14.03 4.32 14.04 4.85 13.89C5.38 13.74 5.36 13.3 5.78 12.9C6.82 11.95 8.16 11.89 9.49 11.92L22.5 11.92C23.83 11.89 25.17 11.95 26.21 12.9C26.63 13.3 26.62 13.74 27.14 13.89C27.67 14.04 28.47 14.03 29 13.89C29.67 13.73 30.38 13.46 30.86 12.9C31.34 12.34 31.66 11.71 31.79 10.93C31.95 10.03 32.15 8.81 31.79 7.98C31.66 7.68 30.86 7.33 30.86 7C30.86 6.66 31.66 6.31 31.79 6.01Z" fill="#FFAA00" fill-opacity="1.000000" fill-rule="evenodd"/>
</svg>
